<svg xmlns="http://www.w3.org/2000/svg" viewBox="0 0 64 64" role="img" aria-labelledby="title desc">
  <title id="title">Partly cloudy weather icon</title>
  <desc id="desc">A yellow sun behind blue and white clouds.</desc>
  <circle cx="22" cy="22" r="11" fill="#f4b860"/>
  <g fill="#f4b860">
    <rect x="21" y="4" width="2" height="8" rx="1"/>
    <rect x="21" y="32" width="2" height="8" rx="1"/>
    <rect x="4" y="21" width="8" height="2" rx="1"/>
    <rect x="32" y="21" width="8" height="2" rx="1"/>
    <rect x="9.5" y="10.5" width="2" height="8" rx="1" transform="rotate(-45 10.5 14.5)"/>
    <rect x="32.5" y="33.5" width="2" height="8" rx="1" transform="rotate(-45 33.5 37.5)"/>
    <rect x="9.5" y="32.5" width="2" height="8" rx="1" transform="rotate(45 10.5 36.5)"/>
    <rect x="32.5" y="9.5" width="2" height="8" rx="1" transform="rotate(45 33.5 13.5)"/>
  </g>
  <path d="M44 48H21c-5 0-9-3.6-9-8.3C12 35.4 15.4 32 20 32c.7-5.8 5.7-10 11.7-10 6.4 0 11.6 4.8 11.9 11h.4c4.4 0 8 3.4 8 7.5S48.4 48 44 48Z" fill="#ffffff"/>
  <path d="M44 50H21c-6.1 0-11-4.6-11-10.3 0-5.8 4.4-10 10-10.6C21.7 22.6 26.9 18 33.2 18c7 0 12.7 4.9 13.8 11.5 4.9 1 8.9 5.2 8.9 10.2C55.9 45.4 50.6 50 44 50Z" fill="#6db7d6"/>
  <path d="M44 48H21c-5 0-9-3.6-9-8.3C12 35.4 15.4 32 20 32c.7-5.8 5.7-10 11.7-10 6.4 0 11.6 4.8 11.9 11h.4c4.4 0 8 3.4 8 7.5S48.4 48 44 48Z" fill="#eaf7ff"/>
</svg>
